<svg width="120" height="121" viewBox="0 0 120 121" fill="none" xmlns="http://www.w3.org/2000/svg">
<path d="M51.2178 87.5907L93.3428 45.4657L86.4956 38.7673L51.2178 74.0452L33.3555 56.183L26.6572 62.8813L51.2178 87.5907ZM60 120.04C51.8628 120.04 44.1721 118.477 36.928 115.352C29.6839 112.226 23.3577 107.959 17.9494 102.55C12.5411 97.142 8.27402 90.8158 5.14814 83.5717C2.02225 76.3276 0.459305 68.6369 0.459305 60.4997C0.459305 52.2632 2.02225 44.5229 5.14814 37.2788C8.27402 30.0347 12.5411 23.7333 17.9494 18.3746C23.3577 13.016 29.6839 8.7737 36.928 5.64781C44.1721 2.52193 51.8628 0.958984 60 0.958984C68.2365 0.958984 75.9768 2.52193 83.2209 5.64781C90.465 8.7737 96.7664 13.016 102.125 18.3746C107.484 23.7333 111.726 30.0347 114.852 37.2788C117.978 44.5229 119.541 52.2632 119.541 60.4997C119.541 68.6369 117.978 76.3276 114.852 83.5717C111.726 90.8158 107.484 97.142 102.125 102.55C96.7664 107.959 90.465 112.226 83.2209 115.352C75.9768 118.477 68.2365 120.04 60 120.04ZM60 111.109C74.0913 111.109 86.0491 106.172 95.8733 96.2985C105.697 86.4247 110.61 74.4918 110.61 60.4997C110.61 46.4084 105.697 34.4506 95.8733 24.6264C86.0491 14.8022 74.0913 9.89009 60 9.89009C46.0079 9.89009 34.075 14.8022 24.2012 24.6264C14.3273 34.4506 9.39041 46.4084 9.39041 60.4997C9.39041 74.4918 14.3273 86.4247 24.2012 96.2985C34.075 106.172 46.0079 111.109 60 111.109Z" fill="#2DCE47"/>
</svg>
