<svg width="64" height="48" viewBox="0 0 64 48" fill="none" xmlns="http://www.w3.org/2000/svg">
<path d="M54.2621 4.05393C54.2443 4.02 54.2148 3.99342 54.1789 3.97893C50.0294 2.10485 45.6505 0.768486 41.1518 0.0032779C41.1109 -0.00420186 41.0687 0.00119413 41.0311 0.0186985C40.9935 0.0362028 40.9625 0.0649242 40.9425 0.100778C40.3462 1.16609 39.8049 2.26034 39.3207 3.37936C34.4713 2.65473 29.5386 2.65473 24.6893 3.37936C24.2018 2.2575 23.6519 1.16298 23.0419 0.100778C23.021 0.0657034 22.9898 0.0376434 22.9525 0.0202528C22.9151 0.0028622 22.8733 -0.00305301 22.8325 0.0032779C18.3333 0.76688 13.9541 2.10335 9.80519 3.97904C9.76967 3.99386 9.73971 4.01917 9.71942 4.05147C1.42236 16.2484 -0.850522 28.1455 0.264476 39.8952C0.267612 39.924 0.2766 39.9519 0.290904 39.9772C0.305209 40.0025 0.324538 40.0248 0.347741 40.0426C5.17904 43.5639 10.5829 46.2517 16.3288 47.9914C16.3692 48.0034 16.4124 48.0028 16.4526 47.9899C16.4927 47.9769 16.5279 47.9522 16.5533 47.919C17.7874 46.2661 18.8809 44.5158 19.8226 42.6859C19.8356 42.6608 19.843 42.6333 19.8443 42.6051C19.8457 42.577 19.8409 42.5489 19.8305 42.5227C19.82 42.4965 19.804 42.4728 19.7835 42.4531C19.7631 42.4335 19.7386 42.4183 19.7117 42.4086C17.9874 41.7591 16.318 40.9762 14.7193 40.0672C14.6902 40.0504 14.6658 40.0268 14.6483 39.9985C14.6307 39.9703 14.6204 39.9381 14.6184 39.905C14.6164 39.8719 14.6228 39.8389 14.6368 39.8087C14.6509 39.7786 14.6723 39.7523 14.6991 39.7323C15.0346 39.4849 15.3703 39.2275 15.6906 38.9676C15.7191 38.9445 15.7535 38.9297 15.79 38.9249C15.8266 38.92 15.8638 38.9253 15.8974 38.9402C26.3713 43.6456 37.7108 43.6456 48.0608 38.9402C48.0945 38.9244 48.1321 38.9184 48.1692 38.9228C48.2062 38.9272 48.2413 38.9419 48.2702 38.9651C48.5906 39.2251 48.9262 39.4849 49.2642 39.7323C49.2911 39.7521 49.3127 39.7782 49.327 39.8082C49.3413 39.8383 49.3479 39.8713 49.3461 39.9044C49.3444 39.9375 49.3344 39.9697 49.317 39.9981C49.2996 40.0265 49.2754 40.0502 49.2465 40.0672C47.6514 40.9839 45.9805 41.7663 44.2517 42.4061C44.2248 42.4162 44.2004 42.4317 44.1801 42.4517C44.1598 42.4717 44.144 42.4956 44.1337 42.5221C44.1234 42.5485 44.1189 42.5767 44.1205 42.6049C44.1221 42.6332 44.1297 42.6608 44.1428 42.6859C45.1004 44.5056 46.1923 46.2537 47.4097 47.9161C47.4344 47.9502 47.4694 47.9758 47.5097 47.9892C47.55 48.0027 47.5935 48.0033 47.6342 47.9911C53.3904 46.2573 58.8037 43.5692 63.641 40.0426C63.6646 40.0257 63.6842 40.004 63.6986 39.979C63.7129 39.954 63.7217 39.9263 63.7243 39.8977C65.0592 26.3138 61.4895 14.5142 54.2621 4.05393ZM21.3868 32.7409C18.2334 32.7409 15.6351 29.8923 15.6351 26.3938C15.6351 22.8954 18.183 20.0466 21.3868 20.0466C24.6157 20.0466 27.1889 22.9201 27.1385 26.3936C27.1385 29.8923 24.5904 32.7409 21.3868 32.7409ZM42.6528 32.7409C39.4994 32.7409 36.9011 29.8923 36.9011 26.3938C36.9011 22.8954 39.449 20.0466 42.6528 20.0466C45.8818 20.0466 48.4549 22.9201 48.4045 26.3936C48.4045 29.8923 45.8818 32.7409 42.6528 32.7409Z" fill="#5662F6"/>
</svg>
