<svg width="32" height="32" viewBox="0 0 32 32" fill="none" xmlns="http://www.w3.org/2000/svg">
<path d="M3.50185 28.4932H5.95315L21.0549 13.3699L18.6036 10.9151L3.50185 26.0384V28.4932ZM28.5401 10.8274L21.0987 3.46301L23.55 1.00822C24.2211 0.336073 25.0455 0 26.0231 0C27.0007 0 27.8251 0.336073 28.4963 1.00822L30.9476 3.46301C31.6188 4.13516 31.969 4.94612 31.9982 5.89589C32.0274 6.84566 31.7064 7.65662 31.0352 8.32877L28.5401 10.8274ZM26.0013 13.4137L7.44144 32H0V24.5479L18.5598 5.96164L26.0013 13.4137ZM19.8292 12.1425L18.6036 10.9151L21.0549 13.3699L19.8292 12.1425Z" fill="#A0A0A0"/>
</svg>
