<svg width="570" height="570" viewBox="0 0 570 570" fill="none" xmlns="http://www.w3.org/2000/svg">
<circle opacity="0.1" cx="285" cy="285" r="244" fill="#2D94CE"/>
<circle opacity="0.1" cx="285" cy="285" r="283" stroke="#2D94CE" stroke-width="4"/>
<path d="M322.71 131L265.35 275.328H319.375L380.061 131H322.71Z" fill="#2D1E66"/>
<path d="M330.148 296.161V279.056C330.148 272.07 324.468 266.391 317.482 266.391H265.34C258.354 266.391 252.675 272.07 252.675 279.056V296.161C229.976 309.471 214.745 334.129 214.745 362.334C214.745 404.674 249.071 439 291.411 439C333.752 439 368.077 404.674 368.077 362.334C368.077 334.12 352.836 309.471 330.148 296.161ZM261.621 291.674V279.047C261.621 276.99 263.293 275.318 265.35 275.318H317.492C319.548 275.318 321.22 276.99 321.22 279.047V291.674C312.062 287.811 301.992 285.668 291.43 285.668C280.869 285.668 270.798 287.801 261.64 291.674H261.621Z" fill="#FF8B00"/>
<path d="M291.421 424.624C257.076 424.624 229.131 396.679 229.131 362.334C229.131 327.989 257.076 300.044 291.421 300.044C325.766 300.044 353.711 327.989 353.711 362.334C353.711 396.679 325.766 424.624 291.421 424.624Z" fill="#FFCF03"/>
<path d="M283.07 407.97C285.741 410.075 286.452 413.563 286.452 413.563C286.452 413.563 282.839 413.65 280.168 411.545C277.496 409.44 276.785 405.952 276.785 405.952C276.785 405.952 280.398 405.866 283.07 407.97Z" fill="#FFFF03"/>
<path d="M279.842 413.438C283.071 412.314 286.453 413.573 286.453 413.573C286.453 413.573 284.618 416.638 281.389 417.763C278.16 418.887 274.777 417.628 274.777 417.628C274.777 417.628 276.613 414.563 279.842 413.438Z" fill="#FFFF03"/>
<path d="M272.644 405.145C274.998 407.586 275.209 411.142 275.209 411.142C275.209 411.142 271.615 410.738 269.261 408.297C266.907 405.856 266.695 402.301 266.695 402.301C266.695 402.301 270.289 402.704 272.644 405.155V405.145Z" fill="#FFFF03"/>
<path d="M268.684 410.123C272.038 409.45 275.219 411.151 275.219 411.151C275.219 411.151 272.97 413.938 269.616 414.61C266.263 415.283 263.082 413.582 263.082 413.582C263.082 413.582 265.331 410.795 268.684 410.123Z" fill="#FFFF03"/>
<path d="M264.437 401.09C266.368 403.867 266.013 407.413 266.013 407.413C266.013 407.413 262.525 406.452 260.603 403.675C258.671 400.897 259.027 397.352 259.027 397.352C259.027 397.352 262.515 398.312 264.437 401.09Z" fill="#FFFF03"/>
<path d="M259.728 405.385C263.139 405.241 266.012 407.412 266.012 407.412C266.012 407.412 263.341 409.815 259.929 409.959C256.518 410.103 253.645 407.931 253.645 407.931C253.645 407.931 256.316 405.529 259.728 405.385Z" fill="#FFFF03"/>
<path d="M256.769 394.91C257.951 398.062 256.731 401.416 256.731 401.416C256.731 401.416 253.588 399.648 252.406 396.496C251.224 393.334 252.445 389.99 252.445 389.99C252.445 389.99 255.587 391.758 256.769 394.91Z" fill="#FFFF03"/>
<path d="M251.147 397.947C254.5 398.629 256.74 401.416 256.74 401.416C256.74 401.416 253.559 403.108 250.205 402.435C246.851 401.753 244.612 398.966 244.612 398.966C244.612 398.966 247.793 397.275 251.147 397.947Z" fill="#FFFF03"/>
<path d="M250.983 387.742C251.386 391.086 249.397 394.056 249.397 394.056C249.397 394.056 246.764 391.615 246.36 388.271C245.966 384.926 247.946 381.957 247.946 381.957C247.946 381.957 250.579 384.398 250.983 387.742Z" fill="#FFFF03"/>
<path d="M244.785 389.395C247.879 390.827 249.397 394.065 249.397 394.065C249.397 394.065 245.899 394.978 242.805 393.536C239.711 392.105 238.192 388.866 238.192 388.866C238.192 388.866 241.69 387.953 244.785 389.395Z" fill="#FFFF03"/>
<path d="M246.034 378.727C245.746 382.081 243.199 384.609 243.199 384.609C243.199 384.609 241.114 381.697 241.393 378.343C241.681 374.989 244.228 372.462 244.228 372.462C244.228 372.462 246.313 375.374 246.034 378.727Z" fill="#FFFF03"/>
<path d="M239.624 379.141C242.363 381.15 243.199 384.619 243.199 384.619C243.199 384.619 239.586 384.821 236.847 382.812C234.108 380.804 233.272 377.335 233.272 377.335C233.272 377.335 236.886 377.133 239.624 379.141Z" fill="#FFFF03"/>
<path d="M243.478 370.137C242.661 373.405 239.73 375.5 239.73 375.5C239.73 375.5 238.135 372.299 238.961 369.032C239.778 365.765 242.699 363.67 242.699 363.67C242.699 363.67 244.295 366.87 243.468 370.137H243.478Z" fill="#FFFF03"/>
<path d="M237.087 369.541C239.471 371.953 239.74 375.509 239.74 375.509C239.74 375.509 236.136 375.153 233.753 372.741C231.37 370.329 231.101 366.783 231.101 366.783C231.101 366.783 234.704 367.139 237.087 369.551V369.541Z" fill="#FFFF03"/>
<path d="M243.198 360.556C241.594 363.526 238.24 364.871 238.24 364.871C238.24 364.871 237.481 361.392 239.086 358.413C240.691 355.444 244.044 354.099 244.044 354.099C244.044 354.099 244.803 357.577 243.198 360.556Z" fill="#FFFF03"/>
<path d="M237.146 358.452C238.866 361.363 238.241 364.871 238.241 364.871C238.241 364.871 234.839 363.66 233.119 360.748C231.399 357.837 232.024 354.329 232.024 354.329C232.024 354.329 235.426 355.54 237.146 358.452Z" fill="#FFFF03"/>
<path d="M244.91 350.889C242.642 353.407 239.067 353.935 239.067 353.935C239.067 353.935 239.163 350.38 241.431 347.852C243.699 345.335 247.274 344.806 247.274 344.806C247.274 344.806 247.178 348.371 244.91 350.889Z" fill="#FFFF03"/>
<path d="M239.529 347.439C240.499 350.668 239.068 353.935 239.068 353.935C239.068 353.935 236.05 351.975 235.07 348.746C234.099 345.517 235.531 342.259 235.531 342.259C235.531 342.259 238.549 344.22 239.529 347.449V347.439Z" fill="#FFFF03"/>
<path d="M248.408 342.941C245.621 344.883 242.008 344.594 242.008 344.594C242.008 344.594 242.921 341.154 245.717 339.203C248.504 337.262 252.117 337.55 252.117 337.55C252.117 337.55 251.204 340.991 248.408 342.941Z" fill="#FFFF03"/>
<path d="M243.968 338.377C244.17 341.741 242.008 344.595 242.008 344.595C242.008 344.595 239.519 342.01 239.317 338.646C239.115 335.283 241.277 332.429 241.277 332.429C241.277 332.429 243.766 335.014 243.968 338.377Z" fill="#FFFF03"/>
<path d="M252.79 335.743C249.724 337.233 246.207 336.378 246.207 336.378C246.207 336.378 247.668 333.12 250.733 331.631C253.799 330.141 257.316 330.996 257.316 330.996C257.316 330.996 255.855 334.254 252.79 335.743Z" fill="#FFFF03"/>
<path d="M249.138 330.555C248.802 333.899 246.207 336.388 246.207 336.388C246.207 336.388 244.17 333.447 244.506 330.103C244.843 326.759 247.437 324.27 247.437 324.27C247.437 324.27 249.475 327.211 249.138 330.564V330.555Z" fill="#FFFF03"/>
<path d="M301.617 407.519C298.946 409.623 298.234 413.111 298.234 413.111C298.234 413.111 301.848 413.198 304.519 411.093C307.191 408.989 307.902 405.5 307.902 405.5C307.902 405.5 304.288 405.414 301.617 407.519Z" fill="#FFFF03"/>
<path d="M304.846 412.986C301.627 411.872 298.234 413.121 298.234 413.121C298.234 413.121 300.079 416.186 303.299 417.311C306.528 418.435 309.91 417.176 309.91 417.176C309.91 417.176 308.075 414.111 304.846 412.986Z" fill="#FFFF03"/>
<path d="M310.717 405.145C308.363 407.586 308.151 411.142 308.151 411.142C308.151 411.142 311.745 410.738 314.1 408.297C316.454 405.856 316.666 402.301 316.666 402.301C316.666 402.301 313.071 402.704 310.717 405.155V405.145Z" fill="#FFFF03"/>
<path d="M314.676 410.123C311.322 409.45 308.142 411.151 308.142 411.151C308.142 411.151 310.39 413.938 313.744 414.61C317.098 415.283 320.279 413.582 320.279 413.582C320.279 413.582 318.03 410.795 314.676 410.123Z" fill="#FFFF03"/>
<path d="M318.904 400.753C316.973 403.531 317.338 407.077 317.338 407.077C317.338 407.077 320.817 406.116 322.748 403.338C324.68 400.561 324.315 397.015 324.315 397.015C324.315 397.015 320.826 397.976 318.904 400.753Z" fill="#FFFF03"/>
<path d="M323.623 405.04C320.202 404.895 317.338 407.067 317.338 407.067C317.338 407.067 320.009 409.47 323.421 409.614C326.842 409.758 329.705 407.586 329.705 407.586C329.705 407.586 327.034 405.184 323.623 405.04Z" fill="#FFFF03"/>
<path d="M326.314 394.728C325.132 397.88 326.353 401.234 326.353 401.234C326.353 401.234 329.495 399.466 330.677 396.314C331.859 393.162 330.639 389.808 330.639 389.808C330.639 389.808 327.496 391.576 326.314 394.728Z" fill="#FFFF03"/>
<path d="M331.944 397.765C328.591 398.447 326.352 401.234 326.352 401.234C326.352 401.234 329.532 402.925 332.886 402.253C336.24 401.57 338.479 398.784 338.479 398.784C338.479 398.784 335.298 397.092 331.944 397.765Z" fill="#FFFF03"/>
<path d="M332.425 387.088C332.022 390.432 334.011 393.402 334.011 393.402C334.011 393.402 336.644 390.961 337.047 387.617C337.441 384.273 335.462 381.303 335.462 381.303C335.462 381.303 332.829 383.744 332.425 387.088Z" fill="#FFFF03"/>
<path d="M338.623 388.741C335.529 390.173 334.011 393.412 334.011 393.412C334.011 393.412 337.509 394.325 340.603 392.883C343.697 391.451 345.216 388.213 345.216 388.213C345.216 388.213 341.718 387.3 338.623 388.741Z" fill="#FFFF03"/>
<path d="M336.808 378.564C337.096 381.918 339.643 384.445 339.643 384.445C339.643 384.445 341.728 381.534 341.449 378.18C341.161 374.826 338.614 372.299 338.614 372.299C338.614 372.299 336.529 375.211 336.808 378.564Z" fill="#FFFF03"/>
<path d="M343.217 378.969C340.479 380.977 339.643 384.446 339.643 384.446C339.643 384.446 343.256 384.648 345.995 382.639C348.733 380.631 349.569 377.162 349.569 377.162C349.569 377.162 345.956 376.96 343.217 378.969Z" fill="#FFFF03"/>
<path d="M339.364 369.954C340.18 373.221 343.111 375.316 343.111 375.316C343.111 375.316 344.706 372.116 343.88 368.849C343.063 365.582 340.132 363.487 340.132 363.487C340.132 363.487 338.537 366.687 339.364 369.954Z" fill="#FFFF03"/>
<path d="M345.754 369.359C343.371 371.771 343.102 375.326 343.102 375.326C343.102 375.326 346.705 374.971 349.088 372.559C351.472 370.147 351.741 366.591 351.741 366.591C351.741 366.591 348.137 366.947 345.754 369.359Z" fill="#FFFF03"/>
<path d="M339.594 360.691C341.199 363.66 344.553 365.005 344.553 365.005C344.553 365.005 345.312 361.527 343.707 358.548C342.103 355.578 338.749 354.233 338.749 354.233C338.749 354.233 337.99 357.712 339.594 360.691Z" fill="#FFFF03"/>
<path d="M345.648 358.586C343.928 361.498 344.553 365.006 344.553 365.006C344.553 365.006 347.955 363.795 349.675 360.883C351.395 357.971 350.77 354.464 350.77 354.464C350.77 354.464 347.369 355.675 345.648 358.586Z" fill="#FFFF03"/>
<path d="M337.807 351.023C340.074 353.541 343.649 354.07 343.649 354.07C343.649 354.07 343.553 350.504 341.285 347.987C339.017 345.469 335.442 344.94 335.442 344.94C335.442 344.94 335.539 348.496 337.807 351.023Z" fill="#FFFF03"/>
<path d="M343.179 347.573C342.209 350.802 343.64 354.07 343.64 354.07C343.64 354.07 346.658 352.109 347.638 348.88C348.609 345.652 347.177 342.384 347.177 342.384C347.177 342.384 344.159 344.345 343.179 347.573Z" fill="#FFFF03"/>
<path d="M334.405 343.201C337.192 345.142 340.805 344.854 340.805 344.854C340.805 344.854 339.882 341.414 337.096 339.463C334.309 337.522 330.695 337.81 330.695 337.81C330.695 337.81 331.608 341.26 334.405 343.201Z" fill="#FFFF03"/>
<path d="M338.845 338.646C338.644 342.009 340.806 344.863 340.806 344.863C340.806 344.863 343.295 342.278 343.497 338.915C343.698 335.561 341.536 332.697 341.536 332.697C341.536 332.697 339.047 335.282 338.845 338.646Z" fill="#FFFF03"/>
<path d="M329.773 336.071C332.839 337.56 336.356 336.705 336.356 336.705C336.356 336.705 334.895 333.447 331.83 331.958C328.764 330.468 325.247 331.323 325.247 331.323C325.247 331.323 326.708 334.581 329.773 336.071Z" fill="#FFFF03"/>
<path d="M333.415 330.872C333.752 334.216 336.346 336.705 336.346 336.705C336.346 336.705 338.384 333.765 338.047 330.411C337.711 327.057 335.116 324.578 335.116 324.578C335.116 324.578 333.079 327.518 333.415 330.862V330.872Z" fill="#FFFF03"/>
<path d="M327.303 325.798C327.159 325.942 327.005 326.086 326.823 326.23C326.765 326.269 326.717 326.298 326.659 326.336C337.384 335.465 344.13 348.679 344.13 363.353C344.13 390.836 320.451 413.198 291.344 413.198C262.236 413.198 238.558 390.836 238.558 363.353C238.558 349.332 244.727 336.638 254.635 327.576C254.356 327.489 254.068 327.383 253.779 327.239C243.862 336.436 237.712 349.226 237.712 363.353C237.712 391.278 261.775 413.996 291.344 413.996C320.913 413.996 344.975 391.278 344.975 363.353C344.975 348.477 338.143 335.081 327.293 325.807L327.303 325.798Z" fill="#FFFF03"/>
<path d="M259.892 329.392C256.548 330.104 253.348 328.441 253.348 328.441C253.348 328.441 255.568 325.625 258.912 324.924C262.256 324.213 265.456 325.875 265.456 325.875C265.456 325.875 263.236 328.691 259.892 329.392Z" fill="#FFFF03"/>
<path d="M257.633 323.472C256.48 326.634 253.347 328.431 253.347 328.431C253.347 328.431 252.098 325.087 253.251 321.925C254.405 318.763 257.537 316.966 257.537 316.966C257.537 316.966 258.786 320.31 257.633 323.472Z" fill="#FFFF03"/>
<path d="M323.027 329.392C326.371 330.104 329.571 328.441 329.571 328.441C329.571 328.441 327.351 325.625 324.007 324.924C320.663 324.213 317.463 325.875 317.463 325.875C317.463 325.875 319.683 328.691 323.027 329.392Z" fill="#FFFF03"/>
<path d="M325.286 323.472C326.439 326.634 329.572 328.431 329.572 328.431C329.572 328.431 330.821 325.087 329.667 321.925C328.514 318.763 325.382 316.966 325.382 316.966C325.382 316.966 324.132 320.31 325.286 323.472Z" fill="#FFFF03"/>
<path d="M314.215 393.011L292.91 384.151L271.519 392.819L273.364 369.813L258.508 352.151L280.956 346.798L293.17 327.213L305.192 346.904L327.592 352.468L312.582 369.996L314.215 393.011Z" fill="#FFFF03"/>
<g style="mix-blend-mode:screen">
<path d="M292.909 384.151L293.755 384.506L266.406 350.267L262.178 351.276L289.527 385.515L292.909 384.151Z" fill="#FFF8C5"/>
<path d="M312.927 374.973L285.107 340.148L282.896 343.684L313.426 381.902L312.927 374.973Z" fill="#FFF8C5"/>
<path d="M316.011 365.988L289.594 332.931L287.394 336.477L313.397 369.025L316.011 365.988Z" fill="#FFF8C5"/>
<path d="M314.214 393.011L313.782 386.976L281.272 346.288L280.955 346.798L271.701 349.008L303.192 388.427L314.214 393.011Z" fill="#FFF8C5"/>
</g>
<path d="M190 131H252.684L321.143 278.326H261.698L190 131Z" fill="#004DA2"/>
<path d="M286.913 318.233C286.051 318.233 285.263 318.08 284.548 317.774C283.833 317.468 283.208 317.038 282.671 316.483C282.135 315.928 281.72 315.282 281.426 314.546C281.142 313.798 281 312.988 281 312.116C281 311.244 281.142 310.44 281.426 309.704C281.72 308.956 282.135 308.305 282.671 307.75C283.208 307.195 283.833 306.765 284.548 306.459C285.263 306.153 286.051 306 286.913 306C287.765 306 288.548 306.153 289.263 306.459C289.988 306.765 290.614 307.201 291.139 307.767C291.675 308.322 292.091 308.973 292.385 309.721C292.679 310.457 292.826 311.255 292.826 312.116C292.826 312.977 292.679 313.781 292.385 314.529C292.091 315.265 291.675 315.916 291.139 316.483C290.614 317.038 289.988 317.468 289.263 317.774C288.548 318.08 287.765 318.233 286.913 318.233ZM286.913 316.449C287.523 316.449 288.08 316.341 288.585 316.126C289.1 315.911 289.541 315.61 289.909 315.225C290.288 314.829 290.577 314.37 290.777 313.849C290.987 313.317 291.092 312.739 291.092 312.116C291.092 311.493 290.987 310.921 290.777 310.4C290.577 309.868 290.288 309.409 289.909 309.024C289.541 308.628 289.1 308.322 288.585 308.107C288.08 307.892 287.523 307.784 286.913 307.784C286.304 307.784 285.741 307.892 285.226 308.107C284.721 308.322 284.28 308.628 283.901 309.024C283.523 309.409 283.234 309.868 283.034 310.4C282.834 310.921 282.735 311.493 282.735 312.116C282.735 312.739 282.834 313.317 283.034 313.849C283.234 314.37 283.523 314.829 283.901 315.225C284.28 315.61 284.721 315.911 285.226 316.126C285.741 316.341 286.304 316.449 286.913 316.449Z" fill="#FFFF03"/>
<path d="M295.903 320.305L302.4 306.17H304.182L297.701 320.305H295.903Z" fill="#FFFF03"/>
</svg>
