<svg width="70" height="19" viewBox="0 0 70 19" fill="none" xmlns="http://www.w3.org/2000/svg">
<path d="M7.77174 15.7276C6.6388 15.7276 5.60256 15.531 4.66305 15.1378C3.72353 14.7446 2.90145 14.1912 2.19681 13.4776C1.49217 12.7641 0.946426 11.934 0.559566 10.9874C0.186522 10.0263 0 8.98509 0 7.86378C0 6.74246 0.186522 5.70852 0.559566 4.76195C0.946426 3.80083 1.49217 2.96348 2.19681 2.24991C2.90145 1.53635 3.72353 0.982973 4.66305 0.589783C5.60256 0.196595 6.6388 0 7.77174 0C8.89088 0 9.9202 0.196595 10.8597 0.589783C11.8131 0.982973 12.6351 1.54363 13.326 2.27176C14.0306 2.98532 14.5763 3.82267 14.9632 4.7838C15.3501 5.73036 15.5435 6.75702 15.5435 7.86378C15.5435 8.97053 15.3501 10.0045 14.9632 10.9656C14.5763 11.9122 14.0306 12.7495 13.326 13.4776C12.6351 14.1912 11.8131 14.7446 10.8597 15.1378C9.9202 15.531 8.89088 15.7276 7.77174 15.7276ZM7.77174 13.434C8.5731 13.434 9.30537 13.2956 9.96856 13.0189C10.6456 12.7422 11.2259 12.3563 11.7094 11.8612C12.2068 11.3515 12.5868 10.7617 12.8493 10.0918C13.1256 9.40741 13.2638 8.66472 13.2638 7.86378C13.2638 7.06284 13.1256 6.32743 12.8493 5.65755C12.5868 4.97311 12.2068 4.38333 11.7094 3.8882C11.2259 3.37851 10.6456 2.98532 9.96856 2.70863C9.30537 2.43195 8.5731 2.2936 7.77174 2.2936C6.97039 2.2936 6.23121 2.43195 5.55421 2.70863C4.89102 2.98532 4.31073 3.37851 3.81334 3.8882C3.31594 4.38333 2.93599 4.97311 2.67348 5.65755C2.41097 6.32743 2.27971 7.06284 2.27971 7.86378C2.27971 8.66472 2.41097 9.40741 2.67348 10.0918C2.93599 10.7617 3.31594 11.3515 3.81334 11.8612C4.31073 12.3563 4.89102 12.7422 5.55421 13.0189C6.23121 13.2956 6.97039 13.434 7.77174 13.434Z" fill="#CE332D"/>
<path d="M19.5872 18.3925L28.1258 0.218438H30.4677L21.9498 18.3925H19.5872Z" fill="#CE332D"/>
<path d="M36.7953 15.5091V0.218438H38.9921L44.795 9.10888L43.8417 9.08703L49.7068 0.218438H51.8207V15.5091H49.5824V9.15256C49.5824 7.88562 49.6101 6.7279 49.6653 5.6794C49.7344 4.61633 49.8449 3.55326 49.9969 2.4902L50.2663 3.34211L44.9608 11.1185H43.593L38.3911 3.38579L38.6191 2.4902C38.7711 3.52414 38.8747 4.56536 38.93 5.61386C38.999 6.6478 39.0336 7.82737 39.0336 9.15256V15.5091H36.7953Z" fill="#CE332D"/>
<path d="M59.3698 15.5091V0.218438H69.67V2.4902H61.6081V13.2374H69.67V15.5091H59.3698ZM60.4682 8.80306V6.5313H68.5301V8.80306H60.4682Z" fill="#CE332D"/>
</svg>
