<svg width="32" height="40" viewBox="0 0 32 40" fill="none" xmlns="http://www.w3.org/2000/svg">
<path d="M0 34V30H4V16C4 13.2333 4.83333 10.775 6.5 8.625C8.16667 6.475 10.3333 5.06667 13 4.4V3C13 2.16667 13.2917 1.45833 13.875 0.875C14.4583 0.291667 15.1667 0 16 0C16.8333 0 17.5417 0.291667 18.125 0.875C18.7083 1.45833 19 2.16667 19 3V4.4C21.6667 5.06667 23.8333 6.475 25.5 8.625C27.1667 10.775 28 13.2333 28 16V30H32V34H0ZM16 40C14.9 40 13.9583 39.6083 13.175 38.825C12.3917 38.0417 12 37.1 12 36H20C20 37.1 19.6083 38.0417 18.825 38.825C18.0417 39.6083 17.1 40 16 40ZM8 30H24V16C24 13.8 23.2167 11.9167 21.65 10.35C20.0833 8.78333 18.2 8 16 8C13.8 8 11.9167 8.78333 10.35 10.35C8.78333 11.9167 8 13.8 8 16V30Z" fill="white"/>
</svg>
