<svg width="65" height="66" viewBox="0 0 65 66" fill="none" xmlns="http://www.w3.org/2000/svg">
<rect y="0.5" width="65" height="65" rx="32.5" fill="#2D94CE"/>
<path d="M32.7812 25.3672V36.4531C32.7812 37.6641 32.5352 38.7422 32.043 39.6875C31.5586 40.6328 30.8242 41.3789 29.8398 41.9258C28.8555 42.4648 27.6211 42.7344 26.1367 42.7344C24.0195 42.7344 22.4062 42.1602 21.2969 41.0117C20.1953 39.8633 19.6445 38.3281 19.6445 36.4062V25.3672H21.6484V36.4648C21.6484 37.918 22.0312 39.0391 22.7969 39.8281C23.5703 40.6172 24.7227 41.0117 26.2539 41.0117C27.3008 41.0117 28.1562 40.8242 28.8203 40.4492C29.4922 40.0664 29.9883 39.5352 30.3086 38.8555C30.6367 38.168 30.8008 37.375 30.8008 36.4766V25.3672H32.7812ZM37.3281 42.5V25.3672H39.3203V40.7188H46.9258V42.5H37.3281Z" fill="white"/>
</svg>
