<svg width="64" height="45" viewBox="0 0 64 45" fill="none" xmlns="http://www.w3.org/2000/svg">
<path d="M62.6627 7.04097C61.9266 4.26949 59.7579 2.08676 57.0044 1.34601C52.0134 0 32 0 32 0C32 0 11.9867 0 6.99562 1.34601C4.24206 2.08687 2.0734 4.26949 1.33734 7.04097C0 12.0644 0 22.5454 0 22.5454C0 22.5454 0 33.0264 1.33734 38.0499C2.0734 40.8214 4.24206 42.9132 6.99562 43.6539C11.9867 44.9999 32 44.9999 32 44.9999C32 44.9999 52.0133 44.9999 57.0044 43.6539C59.7579 42.9132 61.9266 40.8214 62.6627 38.0499C64 33.0264 64 22.5454 64 22.5454C64 22.5454 64 12.0644 62.6627 7.04097ZM25.4545 32.0614V13.0295L42.1817 22.5457L25.4545 32.0614Z" fill="#FF0101"/>
</svg>
