<svg width="248" height="65" viewBox="0 0 248 65" fill="none" xmlns="http://www.w3.org/2000/svg">
<g id="Logo">
<g id="O/ME">
<path d="M28.1685 55.354C24.181 55.354 20.534 54.662 17.2273 53.2782C13.9206 51.8943 11.0272 49.9467 8.54723 47.4353C6.06722 44.9238 4.14643 42.0024 2.78485 38.6709C1.4719 35.2882 0.81543 31.6235 0.81543 27.677C0.81543 23.7304 1.4719 20.0914 2.78485 16.7599C4.14643 13.3772 6.06722 10.4301 8.54723 7.91869C11.0272 5.40726 13.9206 3.45962 17.2273 2.07577C20.534 0.691925 24.181 0 28.1685 0C32.1073 0 35.7301 0.691925 39.0368 2.07577C42.3921 3.45962 45.2854 5.43289 47.7168 7.99557C50.1968 10.507 52.1176 13.4541 53.4792 16.8368C54.8408 20.1683 55.5216 23.7817 55.5216 27.677C55.5216 31.5723 54.8408 35.2113 53.4792 38.594C52.1176 41.9255 50.1968 44.8726 47.7168 47.4353C45.2854 49.9467 42.3921 51.8943 39.0368 53.2782C35.7301 54.662 32.1073 55.354 28.1685 55.354ZM28.1685 47.2815C30.9889 47.2815 33.5662 46.7946 35.9003 45.8208C38.2831 44.847 40.3254 43.4887 42.0274 41.7461C43.778 39.9522 45.1152 37.8765 46.0392 35.5188C47.0117 33.1099 47.498 30.4959 47.498 27.677C47.498 24.858 47.0117 22.2697 46.0392 19.912C45.1152 17.5031 43.778 15.4274 42.0274 13.6847C40.3254 11.8909 38.2831 10.507 35.9003 9.53318C33.5662 8.55936 30.9889 8.07245 28.1685 8.07245C25.3481 8.07245 22.7465 8.55936 20.3638 9.53318C18.0296 10.507 15.9873 11.8909 14.2367 13.6847C12.4861 15.4274 11.1488 17.5031 10.2249 19.912C9.30096 22.2697 8.839 24.858 8.839 27.677C8.839 30.4959 9.30096 33.1099 10.2249 35.5188C11.1488 37.8765 12.4861 39.9522 14.2367 41.7461C15.9873 43.4887 18.0296 44.847 20.3638 45.8208C22.7465 46.7946 25.3481 47.2815 28.1685 47.2815Z" fill="#CE332D"/>
<path d="M69.7537 64.7334L99.8056 0.768804H108.048L78.069 64.7334H69.7537Z" fill="#CE332D"/>
<path d="M130.319 54.5852V0.768804H138.05L158.474 32.0592L155.119 31.9823L175.761 0.768804H183.201V54.5852H175.323V32.2129C175.323 27.7539 175.421 23.6792 175.615 19.9889C175.858 16.2474 176.247 12.5059 176.782 8.76438L177.73 11.7627L159.057 39.1322H154.243L135.935 11.9165L136.737 8.76438C137.272 12.4034 137.637 16.068 137.831 19.7583C138.075 23.3973 138.196 27.5488 138.196 32.2129V54.5852H130.319Z" fill="#CE332D"/>
<path d="M209.771 54.5852V0.768804H246.023V8.76438H217.648V46.5896H246.023V54.5852H209.771ZM213.637 30.9828V22.9873H242.011V30.9828H213.637Z" fill="#CE332D"/>
</g>
</g>
</svg>
